<svg xmlns="http://www.w3.org/2000/svg" version="1.1" xmlns:xlink="http://www.w3.org/1999/xlink" xmlns:svgjs="http://svgjs.dev/svgjs" viewBox="0 0 800 400"><path d="M4.5454583168029785,391.6268005371094C7.236845879554748,391.3756045532227,89.44976478099824,383.36125701904297,94.25837707519531,383.25360107421875C99.06698936939239,383.14594512939453,160.63397033691408,388.57654693603513,164.83253479003906,388.03826904296875C169.03109924316405,387.49999114990237,230.37081253051758,365.7775115966797,234.2105255126953,365.3110046386719C238.05023849487304,364.84449768066406,289.0550245666504,373.1339700317383,292.8229675292969,372.488037109375C296.59091049194336,371.8421041870117,356.1842218017578,343.85167724609374,359.8086242675781,343.7799072265625C363.43302673339844,343.70813720703126,410.11963653564453,370.2033590698242,413.6363830566406,370.095703125C417.1531295776367,369.9880471801758,474.98805450439454,341.55501251220704,477.03350830078125,340.1913757324219C479.07896209716796,338.8277389526367,480.3110003662109,324.3181768798828,481.81817626953125,324.6411437988281C483.3253521728516,324.96411071777345,523.1100256347656,350.88516876220706,527.272705078125,350.9569396972656C531.4353845214844,351.0287106323242,615.8731994628906,327.50001525878906,620.5741577148438,327.03350830078125C625.2751159667969,326.56700134277344,680.5981079101563,336.80622955322264,683.9713134765625,335.4067077636719C687.3445190429687,334.0071859741211,729.7487927246094,285.9090982055664,733.0143432617188,280.3827819824219C736.2798937988281,274.85646575927734,791.0287384033203,155.07176544189454,792.822998046875,151.1961669921875" fill="none" stroke-width="2" stroke="hsl(151, 42%, 26%)" stroke-linecap="round"></path><defs><linearGradient id="SvgjsLinearGradient1002"><stop stop-color="hsl(151, 42%, 26%)" offset="0"></stop><stop stop-color="hsl(316, 73%, 52%)" offset="1"></stop></linearGradient></defs></svg>