<?xml version="1.0" encoding="UTF-8"?>
<svg id="Layer_1" data-name="Layer 1" xmlns="http://www.w3.org/2000/svg" xmlns:xlink="http://www.w3.org/1999/xlink" viewBox="0 0 2000 2000">
  <defs>
    <style>
      .cls-1 {
        fill: url(#linear-gradient-2);
      }

      .cls-2 {
        fill: #fff;
      }

      .cls-3 {
        opacity: .3;
      }

      .cls-3, .cls-4 {
        fill: #00a950;
      }

      .cls-5 {
        fill: url(#linear-gradient-3);
      }

      .cls-6 {
        fill: url(#linear-gradient);
      }
    </style>
    <linearGradient id="linear-gradient" x1="507.23" y1="916.31" x2="1170.88" y2="1072.78" gradientUnits="userSpaceOnUse">
      <stop offset="0" stop-color="#eee393"/>
      <stop offset="1" stop-color="#94672b"/>
    </linearGradient>
    <linearGradient id="linear-gradient-2" x1="895.76" y1="231.09" x2="1131.42" y2="533.87" xlink:href="#linear-gradient"/>
    <linearGradient id="linear-gradient-3" x1="737.09" y1="192.08" x2="1394.93" y2="1088.63" gradientUnits="userSpaceOnUse">
      <stop offset="0" stop-color="#bcbec0"/>
      <stop offset=".51" stop-color="#6d6e71"/>
      <stop offset="1" stop-color="#bcbec0"/>
    </linearGradient>
  </defs>
  <g>
    <g>
      <path class="cls-6" d="m862.02,1020.45c0,4.29-6.5,4.29-6.5,0s6.5-4.29,6.5,0Zm143.17,0c0,4.29,6.5,4.29,6.5,0s-6.5-4.29-6.5,0Zm37.39-.41c0-4.2-6.32-4.2-6.32,0s6.32,4.15,6.32,0Zm-9.62,0c0-4.2-6.32-4.2-6.32,0s6.32,4.15,6.32,0Zm129.89.41c0,4.29,6.5,4.29,6.5,0s-6.5-4.29-6.5,0Zm-570.19,21.54l-9.53-24.61h-6.68l13.14,31.75h6.19l13.14-31.75h-6.68l-9.57,24.61Zm35.23-15.85c2.3,0,4.52.9,5.74,2.12l-2.48,4.79c-1.13-.95-2.17-1.45-3.97-1.45-2.89,0-5.55,1.54-5.55,5.65v11.74h-5.51v-22.26h5.1l.41,2.57c1.72-2.75,4.02-3.16,6.28-3.16Zm32.79.59h6.1l-13.59,31.56h-6.05l4.15-9.66-8.9-21.9h6.41l3.39,9.62,2.12,6.28,2.3-6.14,4.06-9.75Zm29.04-.54c-2.35,0-6.01,1.26-7.32,3.57v-12.33h-5.51v31.56h5.15l.36-3.07c1.72,2.66,4.47,3.57,7.18,3.57,6.55,0,11.47-4.34,11.47-11.65,0-7.68-4.83-11.65-11.33-11.65Zm-.5,18.2c-3.48,0-6.46-2.53-6.46-6.55s2.98-6.5,6.46-6.5,6.32,2.48,6.32,6.5-2.8,6.55-6.32,6.55Zm39.83-17.66h5.46v22.31h-4.92l-.36-3.03c-2.3,2.26-4.43,3.34-7.54,3.34-5.33,0-9.21-4.02-9.21-10.93v-11.7h5.51v11.65c0,3.39,1.85,5.96,5.37,5.96s5.69-2.85,5.69-6.23v-11.38Zm29.36-.59c2.3,0,4.52.9,5.74,2.12l-2.48,4.79c-1.13-.95-2.17-1.45-3.97-1.45-2.89,0-5.55,1.54-5.55,5.65v11.74h-5.51v-22.26h5.1l.41,2.57c1.72-2.75,4.02-3.16,6.28-3.16Zm32.52-1.67l-2.21,2.8c-1.54-1.04-3.34-1.26-5.1-1.26-6.23,0-11.29,4.33-11.29,11.29s4.34,11.2,11.29,11.2c2.75,0,5.64,1.4,5.64,4.47s-2.48,4.79-5.64,4.79-5.83-1.9-5.83-4.79h-5.46c0,6.01,4.83,9.94,11.29,9.94s11.15-3.79,11.15-9.94c0-2.84-.9-5.51-4.61-7.36,3.66-1.67,4.7-5.55,4.7-8.31,0-2.44-.63-4.65-2.35-6.59l2.48-3.16-4.06-3.07Zm-7.32,19.01c-3.21,0-5.83-2.3-5.83-6.19s2.62-6.28,5.83-6.28,5.78,2.44,5.78,6.28-2.62,6.19-5.78,6.19Zm38.75-26.06h22.71v5.73h-16.75v8.63h15.85v5.51h-15.85v11.7h-5.96v-31.56Zm33.65,9.21h5.51v22.35h-5.51v-22.35Zm39.61,10.66v11.7h-5.51v-11.65c0-3.39-1.85-5.96-5.37-5.96s-5.69,2.84-5.69,6.23v11.38h-5.46v-22.31h4.92l.36,3.03c2.26-2.21,4.52-3.34,7.32-3.34,5.24,0,9.44,3.93,9.44,10.93Zm29.45-7.5c-1.26-2.21-4.11-3.61-7.09-3.61-6.5-.05-11.61,3.97-11.61,11.65s4.88,11.88,11.47,11.83c2.48-.05,5.96-1.31,7.23-3.93l.27,3.25h5.19v-22.26h-5.28l-.18,3.07Zm-6.59,14.81c-3.66,0-6.59-2.53-6.59-6.77s2.94-6.73,6.59-6.73c8.67,0,8.67,13.5,0,13.5Zm45.84-7.32v11.7h-5.51v-11.65c0-3.39-1.85-5.96-5.37-5.96s-5.69,2.84-5.69,6.23v11.38h-5.46v-22.31h4.92l.36,3.03c2.26-2.21,4.52-3.34,7.32-3.34,5.24,0,9.44,3.93,9.44,10.93Zm30.62,5.15c0,3.93-3.21,7.32-9.57,7.32-3.52,0-7.04-.59-10.3-3.97l2.71-3.93c1.58,1.76,5.19,3.07,7.68,3.12,2.08.05,4.02-1.04,4.02-2.66,0-1.54-1.26-2.17-4.43-2.35-4.2-.32-9.21-1.85-9.21-6.91s5.33-6.95,9.39-6.95c3.48,0,6.1.68,8.67,2.93l-3.07,3.61c-1.58-1.49-3.39-1.99-5.51-1.99-2.62,0-4.06.81-4.06,2.21s1.31,2.26,4.15,2.44c4.2.27,9.53,1.22,9.53,7.13Zm10.75-15.8h5.51v22.35h-5.51v-22.35Zm28.54-.59c-7.23,0-11.83,4.88-11.83,11.65,0,7.14,4.56,11.88,12.24,11.88,3.39,0,7.23-1.17,9.57-3.61l-3.52-3.48c-1.26,1.31-3.93,2.08-5.96,2.08-3.88,0-6.28-1.99-6.64-4.74h17.39c.86-9.17-3.79-13.77-11.24-13.77Zm-6.05,9.21c.81-2.89,3.25-4.33,6.23-4.33,3.16,0,5.42,1.44,5.78,4.33h-12.01Zm28.77-17.84h5.46v31.56h-5.46v-31.56Zm28.36,8.62c-7.23,0-11.83,4.88-11.83,11.65,0,7.14,4.56,11.88,12.24,11.88,3.39,0,7.23-1.17,9.57-3.61l-3.52-3.48c-1.26,1.31-3.93,2.08-5.96,2.08-3.88,0-6.28-1.99-6.64-4.74h17.39c.86-9.17-3.79-13.77-11.24-13.77Zm-6.05,9.21c.81-2.89,3.25-4.33,6.23-4.33,3.16,0,5.42,1.44,5.78,4.33h-12.01Zm57.54-17.88h-12.42v31.61h12.42c11.06,0,15.94-8.08,15.81-16.08-.14-7.81-4.97-15.53-15.81-15.53Zm0,25.88h-6.5v-20.23h6.5c6.86,0,9.75,4.92,9.89,9.84.14,5.15-2.71,10.39-9.89,10.39Zm26.56-16.62h5.51v22.35h-5.51v-22.35Zm28.54-.59c-7.23,0-11.83,4.88-11.83,11.65,0,7.14,4.56,11.88,12.24,11.88,3.39,0,7.23-1.17,9.57-3.61l-3.52-3.48c-1.26,1.31-3.93,2.08-5.96,2.08-3.88,0-6.28-1.99-6.64-4.74h17.39c.86-9.17-3.79-13.77-11.24-13.77Zm-6.05,9.21c.81-2.89,3.25-4.33,6.23-4.33,3.16,0,5.42,1.44,5.78,4.33h-12.01Zm50.67,2.03v11.7h-5.51v-11.65c0-3.39-1.85-5.96-5.37-5.96s-5.69,2.84-5.69,6.23v11.38h-5.46v-22.31h4.92l.36,3.03c2.26-2.21,4.52-3.34,7.32-3.34,5.24,0,9.44,3.93,9.44,10.93Zm30.62,5.15c0,3.93-3.21,7.32-9.57,7.32-3.52,0-7.04-.59-10.3-3.97l2.71-3.93c1.58,1.76,5.19,3.07,7.68,3.12,2.08.05,4.02-1.04,4.02-2.66,0-1.54-1.26-2.17-4.43-2.35-4.2-.32-9.21-1.85-9.21-6.91s5.33-6.95,9.39-6.95c3.48,0,6.1.68,8.67,2.93l-3.07,3.61c-1.58-1.49-3.39-1.99-5.51-1.99-2.62,0-4.06.81-4.06,2.21s1.31,2.26,4.15,2.44c4.2.27,9.53,1.22,9.53,7.13Zm24.03,1.17l1.54,4.7c-1.58.63-2.89.9-4.56.95-4.83.18-7.99-2.57-7.99-8.13v-9.62h-4.15v-4.74h4.15v-5.73l5.51-.59v6.32h6.14v4.74h-6.19v9.62c0,2.12,1.17,3.16,2.89,3.16.86,0,1.85-.27,2.66-.68Zm22.81-17.57c-7.23,0-11.83,4.88-11.83,11.65,0,7.14,4.56,11.88,12.24,11.88,3.39,0,7.23-1.17,9.57-3.61l-3.52-3.48c-1.26,1.31-3.93,2.08-5.96,2.08-3.88,0-6.28-1.99-6.64-4.74h17.39c.86-9.17-3.79-13.77-11.24-13.77Zm-6.05,9.21c.81-2.89,3.25-4.33,6.23-4.33,3.16,0,5.42,1.44,5.78,4.33h-12.01Zm67.11-2.62c2.94-1.31,4.11-3.66,4.11-6.1,0-6.37-4.65-9.17-10.88-9.17h-14.99v31.61h14.99c6.55,0,11.83-2.26,11.83-9.3,0-1.99-1.35-5.92-5.06-7.05Zm-15.9-9.84h9.12c3.79,0,4.97,2.44,4.97,3.88,0,1.81-1.22,3.39-4.97,3.39h-9.12v-7.27Zm9.12,20.64h-9.12v-8.13h9.12c2.44,0,5.92,1.49,5.92,4.33s-3.48,3.79-5.92,3.79Zm34.6-10.75l15.22,15.94v.36h-7.36l-13.23-14v14h-5.96v-31.61h5.96v13.37l12.01-13.37h7.41v.18l-14.04,15.13Z"/>
      <path class="cls-4" d="m633.79,869.28h1.68c2.37,0,4.55,1.03,6.55,3.09,1.99,2.06,2.18,4.96.56,8.7h.02l-32.94,77.15-31.69-77.15h.09c-1.37-3.74-1.15-6.64.65-8.7,1.81-2.06,3.89-3.09,6.26-3.09h1.68v-1.87h-59.46v1.87h1.5c2.87,0,5.83.91,8.88,2.71,3.05,1.81,5.58,4.83,7.57,9.07h.01l56.09,120.99h1.68c.12-1.37.59-3.27,1.4-5.7.81-2.43,1.78-4.96,2.9-7.57,1.12-2.62,2.15-4.95,3.09-7.01.94-2.06,1.53-3.46,1.78-4.21l43.63-96.49h.12c1.99-4.24,4.52-7.26,7.57-9.07,3.05-1.81,5.95-2.71,8.7-2.71h1.68v-1.87h-40.02v1.87Z"/>
      <path class="cls-4" d="m801.99,932.3c-5.05-2.99-10.69-4.74-16.92-5.24,3.86-.5,7.54-1.81,11.03-3.93,3.49-2.12,6.33-5.17,8.51-9.16,2.18-3.99,3.27-8.85,3.27-14.59,0-7.6-2.06-13.74-6.17-18.42-4.11-4.68-9.76-8.1-16.92-10.29-7.17-2.18-15.3-3.27-24.4-3.27h-54.04v1.87h2.43c3.24,0,6.01,1.15,8.32,3.46,2.31,2.31,3.52,5.08,3.65,8.32v103.6c-.13,3.24-1.34,6.02-3.65,8.32-2.31,2.31-5.08,3.46-8.32,3.46h-2.43v1.87h59.28c10.47,0,19.66-1.37,27.58-4.11,7.91-2.74,14.05-6.83,18.42-12.25,4.36-5.42,6.55-12.12,6.55-20.1,0-6.73-1.43-12.59-4.3-17.58-2.87-4.98-6.83-8.98-11.87-11.97Zm-19.63,44.51c-2.43,4.49-5.8,7.79-10.1,9.91-4.3,2.12-9.26,3.18-14.87,3.18h-8.6v-114.44h5.42c4.74,0,8.91.87,12.53,2.62,3.61,1.75,6.39,4.55,8.32,8.41,1.93,3.87,2.9,8.98,2.9,15.33,0,4.61-.63,8.57-1.87,11.87-1.25,3.3-2.96,5.95-5.14,7.95-2.18,2-4.65,3.46-7.39,4.39-2.74.94-5.55,1.4-8.41,1.4v1.68c4.11,0,8.04.56,11.78,1.68,3.74,1.12,7.01,2.9,9.82,5.33,2.8,2.43,5.05,5.58,6.73,9.44,1.68,3.87,2.52,8.54,2.52,14.02,0,6.98-1.22,12.72-3.65,17.2Z"/>
      <path class="cls-4" d="m1007.03,937.53h2.8v-1.87h-52.55v1.87h2.99c6.36,0,9.54,2.8,9.54,8.41l-.19,28.61c-1.37,3.99-3.68,7.36-6.92,10.1-3.24,2.74-7.01,4.83-11.31,6.26-4.3,1.44-8.76,2.15-13.37,2.15-9.1-.12-16.83-2.59-23.19-7.39-6.36-4.8-11.19-11.65-14.49-20.57-3.3-8.91-4.96-19.35-4.96-31.32,0-12.72,1.78-23.62,5.33-32.72,3.55-9.1,8.85-16.11,15.89-21.04,7.04-4.92,15.61-7.39,25.71-7.39,6.61,0,12.87,1.09,18.79,3.27,5.92,2.18,11.13,5.8,15.61,10.85,4.49,5.05,7.92,11.81,10.28,20.29h1.68l-.37-31.98c-3.62-1.99-8.17-3.74-13.65-5.24-5.49-1.5-11.47-2.71-17.95-3.65-6.48-.93-13.15-1.4-20.01-1.4-14.71,0-27.46,2.78-38.24,8.32-10.78,5.55-19.07,13.37-24.87,23.47-5.8,10.1-8.7,22.13-8.7,36.09s2.93,26.06,8.79,36.28c5.86,10.22,14.09,18.11,24.68,23.65,10.59,5.55,23,8.32,37.21,8.32,10.1,0,19.26-1.22,27.49-3.65,8.23-2.43,15.3-5.52,21.22-9.26,5.92-3.74,10.38-7.48,13.37-11.22v-30.85c-.25-5.61,2.87-8.41,9.35-8.41Z"/>
      <path class="cls-4" d="m1113.06,937.72c4.61.13,8.41,1.68,11.41,4.67,2.99,2.99,4.49,6.8,4.49,11.41v1.5h1.87v-43.01h-1.87v1.31c0,4.61-1.5,8.45-4.49,11.5-2.99,3.06-6.8,4.65-11.41,4.77h-24.68v-54.42h31.42c5.61,0,10.07,1.65,13.37,4.96,3.3,3.3,4.96,7.76,4.96,13.37v1.87h1.87v-31.6c-1.12.5-2.99,1-5.61,1.5-2.62.5-5.46.93-8.51,1.31-3.06.37-5.95.56-8.7.56h-71.24v1.87h2.43c3.24,0,6.01,1.15,8.32,3.46,2.31,2.31,3.52,5.08,3.65,8.32v103.6c-.13,3.24-1.34,6.02-3.65,8.32-2.31,2.31-5.08,3.46-8.32,3.46h-2.43v1.87h56.85v-1.87h-2.43c-3.24,0-6.02-1.15-8.32-3.46-2.31-2.31-3.52-5.08-3.65-8.32v-46.94h24.68Z"/>
      <path class="cls-4" d="m1229.18,867.41h-41.89v1.87h2.43c3.24,0,6.01,1.15,8.32,3.46,2.31,2.31,3.52,5.08,3.65,8.32v103.6c-.13,3.24-1.34,6.02-3.65,8.32-2.31,2.31-5.08,3.46-8.32,3.46h-2.43v1.87h56.85v-1.87h-2.43c-3.24,0-6.02-1.15-8.32-3.46-2.31-2.31-3.52-5.08-3.65-8.32v-103.6c.12-3.24,1.34-6.01,3.65-8.32,2.3-2.31,5.08-3.46,8.32-3.46h2.43v-1.87h-14.96Z"/>
      <path class="cls-4" d="m1422.91,867.41h-41.7v1.87h3.55c3.24,0,5.95,1.09,8.13,3.27,2.18,2.18,3.33,4.89,3.46,8.13v73.91l-94.43-89.99h-1.87c1.5,8.6,2.24,16.39,2.24,23.37v97.05c0,3.12-1.12,5.8-3.37,8.04-2.24,2.24-4.93,3.37-8.04,3.37h-3.55v1.87h56.66v-1.87h-3.55c-3.12,0-5.8-1.12-8.04-3.37-2.24-2.24-3.37-4.92-3.37-8.04h-.02l-.13-74.1,94.59,89.99h1.68c-.75-3.99-1.31-7.82-1.68-11.5-.37-3.68-.56-7.82-.56-12.43v-96.3c.12-3.24,1.31-5.95,3.55-8.13,2.24-2.18,4.92-3.27,8.04-3.27h3.37v-1.87h-14.96Z"/>
    </g>
    <path class="cls-3" d="m801.41,368.3c.89,18.98-11.31,36.11-29.55,41.46-1.91-19.27,10.71-36.98,29.55-41.46Zm-26.86,234.95c9.7-2.63,16.34-11.55,16.07-21.6-10.01,2.17-16.87,11.39-16.07,21.6Zm57.23-323.98h22.26c-5.46-2.18-12.59-4.12-21.92-5.83-.16,2.02-.27,3.96-.35,5.83Zm324.4,69.78c.07,1.67.21,3.35.43,5.03,10.2-4.13,18.14-12.6,22.69-23.08-3.17.03-7.31,1.47-11.98,4.18-4.13,2.4-7.88,7.07-11.14,13.87Zm-341.08,212.12c-.51-5.98-.81-12.07-.91-18.26-7.29-9.69-18.39-16.17-36.2-16.44,6.4,39.19,12.05,24.64,37.1,34.7Zm11.48-212.08l-.05-.12c-2.2-4.98-4.7-8.8-7.47-11.41-.68.21-1.36.44-2.04.7,2.58,4.24,5.84,7.87,9.56,10.82Zm-12.32,182.07c.31-12.05,1.42-23.7,3.29-34.95-6.76,10.59-7.81,23.63-3.29,34.95Zm20.17-128.17c-.31,8.32,3.27,15.97,9.21,21.08,2.2-3.68,4.52-7.26,6.92-10.74-3.9-5.09-9.52-8.84-16.13-10.34Zm11.63-9.82l-10.8-24.68c-5.66-.21-11.34.99-16.66,3.71,6.82,11.51,16.89,18.8,27.47,20.96Zm-23.56,5.31c-24.53,5.83-40.97,28.9-38.48,53.99,23.75-6.96,39.65-29.27,38.48-53.99Zm384.8-119.21v2.41c2.59-12.71-.07-27.08-8.14-39.08-8.4,9.74-11.85,23.18-10.23,36.68h18.37Zm16.01,247.19c6.33.28,12.85-.45,19.25-2.31-10.96-18.4-36.22-26.31-59.13-18.52,5.28,7.8,13.06,13.64,22.09,17.14h17.79v3.69Zm-16.01-195.46h-10.31c-2.88,9.97-1.38,21.64,4.65,31.54,8.65-8.94,10.62-23.21,5.66-35.85v4.31Zm-39.99-51.73c5.43-20.06.69-42.22-14.07-58.48-12.93,17.11-16.52,38.83-10.92,58.48h24.99Zm92.48,24.61c12.09-15.78,9.65-23.04,7.51-43-26.93,4.95-43.48,25.31-35.17,55.96.93.39,7.47,13.39,27.66-12.96Zm2.59,165.5c14.31-4.56,23.73-20.56,22.05-37.44-13.84,5.31-22.95,20.78-22.05,37.44Zm-21.17-90.85c-14.43,3.38-25.55,17.48-26.91,34.11,14.79-2.58,26.29-17.16,26.91-34.11Zm-4.08,111.19c-.67-16.6-14.98-31.34-33.49-34.5,1.6,16.32,15.44,30.58,33.49,34.5Zm85.58-144.05c4.22-20.99-9.2-43.81-31.41-53.41-2.97,20.93,10.01,42.99,31.41,53.41Zm222.38,375.56c-8.86-21.26-33.3-34.71-59.14-32.56,7.73,22.02,33,35.93,59.14,32.56Zm-105.4-321.26c-19.58,17.83-24.67,49.51-12.32,76.66,20.84-16.9,26.11-49.66,12.32-76.66Zm-3.78,217.9c15.42-12.5,19.31-36.73,9.11-56.71-14.48,13.19-18.25,36.62-9.11,56.71Zm-26.56-251.53c-42.38,2.32-57.86,14.53-59.5,56.02,38.21,1.17,55.74-19.91,59.5-56.02Zm-30.73,70.65c-16.38-.8-31.36,9.06-35.07,23.09,16.13.06,30.62-9.48,35.07-23.09Zm104.57,25.69c-38.63,9.91-50.67,28.53-52.73,74.38,34.6-4.31,62-33.35,52.73-74.38Zm12.95,161.05c14.97,7.59,35.01,2.24,46.91-12.51-15.18-6.63-34.56-1.46-46.91,12.51Zm-148.83-71.7c12.35-5.8,19.96-18.34,18.43-30.36-12.81,5.32-20.68,18.29-18.43,30.36Zm186.07,114.82c-20.78-25.07-59.38-33.14-93.44-19.54,19.56,26.57,59.48,34.92,93.44,19.54Zm-30.52,80.27c-6.2-46.09-25.29-63.8-72.63-63.59-8.25,45.22,33.79,59.23,72.63,63.59Zm-413.44-467.84h43.74c-7.87-9.92-20.93-16.14-44.3-17.74-.26,6.54-.05,12.42.56,17.74Zm-275.64,360.07c-8.69.81-15.69,7.47-16.95,16.1,8.88-.37,16.12-7.25,16.95-16.1Zm-14.82-3.32c-16.12-7.42-35.22-2.85-46.24,11.06,16.01,8.4,35.76,3.68,46.24-11.06Zm421.06,22.94c9.91-13.34,8.03-33.8-4.38-47.88-9.01,13.71-7.19,33.49,4.38,47.88Zm-478.14-61.03c.71,8.86,7.86,15.83,16.74,16.32-1.15-8.65-8.06-15.39-16.74-16.32Zm103.88,58.07c-1.89-3-3.74-6.05-5.49-9.19-11.63-20.83-19.4-44.08-23.27-69.46l1.31,37.27c-17.46-3.04-35.09-5.1-47.44-10.77,2.43-19.5,22.12-36.33-.93-52.1-17.53,18.88-6.44,42.34-1.22,64.4,13.46,4.55,39.41,6.6,48.94,13.9,13.67,10.46,10.06,17.21,28.1,25.95Zm442.17-85.82c-26.51,12.72-39.21,40.59-29.71,65.22,25.32-13.65,37.6-40.59,29.71-65.22Zm36.9-138.97c1.69,22.67-6.22,36.96-16.7,48.82l-36.02,34.63c-7.4-11.85-22.5-44.44-17.83-58.91,7.55-23.43,25.5-34.3,5.07-63.22-55.28,32.23-4.2,75.91-3.65,132.53.18,18.45-13.56,31.78-32.4,41.78v7.66h-16.86c-4.96,1.95-10.06,3.74-15.19,5.39v23.96c24.44-11.21,47.17-20.33,61.01-30.9,20.19-15.42,22.19-35.42,34.8-50.27,55.69-65.55,41.47-17.83,50.06-112.75,2.86-31.5-7.82-46.29-30.95-57.04-35.99,47.68,15.43,70.69,18.68,78.31Zm-3.65,134.44c-.54-13.38-12.07-25.25-26.98-27.8,1.29,13.15,12.44,24.64,26.98,27.8Zm-28.25,71.94c-12.65-.72-25.19,8.15-30.33,21.47,12.76,1.46,25.72-7.71,30.33-21.47Zm55.42-322.36c-13.36,16.38-13.65,41.98-.71,61.96,14.46-15.79,14.77-42.26.71-61.96Zm-177.9,124.82l-45.27,24.51c13.68-34.81,36.54-61.44,27.82-108.3-.87,2.22-2.19,5.63-3.83,9.8.48,12.38-4.51,29.68-18.43,55.87l-9.32,12.64c-3.89,7.52-8.47,14.37-13.65,20.37-.6.7-1.21,1.38-1.83,2.06,2.46,1.47,4.86,3.02,7.18,4.65,9.6,6.74,17.92,14.57,24.92,23.41,3.08-4.5,7.25-8.92,12.81-13.3,15.33-12.07,33.49-17.14,44.77-32.08,11.31-14.98,8.69-39.8,15.66-61.1,22.04-9.16,60.86-1.08,60.68-44.15-86.49-4.94-60.84,83.83-101.5,105.61Zm-660.1,139.79c17.4,16.2,39.55,16.63,53.61,1.05-17.16-17.54-40.07-17.99-53.61-1.05Zm64.56,73.78c13.2-23.07,2.52-45.75-25-53.08-11.44,22.83-1.11,44.76,25,53.08Zm70.99-191.63c-2.79-45.04-29.1-31.27-68.69-40.78,8.42,38.3,29.2,42.93,68.69,40.78Zm-49.15,272.69c-6.13,18.62,1.27,39.02,17.92,49.37,7.22-18.62-.43-39.71-17.92-49.37Zm-.94-247.48c10.47,13.46,27.22,16.05,40.55,6.27-10.06-14.4-27.39-17.08-40.55-6.27Zm22.58,88.85c13.18-2.34,20.43-12.53,16.96-23.84-12.65,2.86-19.66,12.71-16.96,23.84Zm-113.72,165.13c39.36-7.39,59.09-23.26,56.83-67.16-35.94,4.14-56.25,27.15-56.83,67.16Zm817.46,1.17c-4.62,15.58,3.96,33.75,20.1,42.52,3.67-15.61-4.63-33.18-20.1-42.52Zm-767.23-21.03c8.62,9.16,21.22,9.56,29.49.94-8.81-8.47-21-8.86-29.49-.94Zm4.38,47.12c15.46-3.04,26.3-17.04,25.36-32.77-15,3.76-25.48,17.3-25.36,32.77Zm58.1-163.8c-16.46-6.27-31.52.33-35.26,15.45,16.21,5.33,30.78-1.06,35.26-15.45Zm-121.64,81.59c-23.99,6.02-40.74,27.67-40.56,52.4,24.73-4.86,42.05-27.25,40.56-52.4Zm46.51-130.76c-5.09-24-24.19-36.65-44.71-29.61,6,23,24.47,35.24,44.71,29.61Zm581.16-298.16c1.66-22.97-12.61-44.1-34.54-51.14-2.9,23.29,11.86,45.14,34.54,51.14Zm-525.97,318.07c21.41-15.5,25.52-39.84,9.62-56.97-20.02,15.97-24,39.5-9.62,56.97Zm800.64,657.29c-44.72,13.19-37.2,38.26-96.15,18.59-29.7-9.91-81.09-10.94-117.86-19.39,26.41-8.74,46.52-21.19,78.88-18.36,38.77,3.39,46.97,25.04,79.12,31.15l-19.5-23.47c28.71-11.03,57.88-5.44,73.78-11.81,17.25-6.91,25.87-27.87,44.13-36.78-35.22-3.24-22.25,27.16-84.95,24.26-25.68-1.19-31.6,8.72-46.12,10.03-11.8,1.06-29.16-9.51-44.98-12.18-62.41-10.55-118.66,73.22-163.26-27.66-11.72-26.5-14.89-51.74-11.03-74.95h395.22v-20.39h-970.47v20.39h421.93c.53,27.02-7.61,55.61-23.37,81.5-48.67,79.98-103.86,21.78-159.95,23.71,15.77,6.37,26.56,14.16,40.68,21.76,19.81,10.67,32.3,9.04,46.5,15.22-35.1,19.55-70.75-1.45-103.44-14.19-18.11-7.06-22.59-2.73-38.3-7.87-22.8-7.46-24.95-28.55-53.94-36.25-18.21-4.83-58.4-5.73-80.1-8.78,23.61,29.14,70.42,1.14,105.89,52.28-37.17,4.87-53.92,5.76-85.07-7.04,16.58,35.68,56.21,22.75,97.03,20.09,30.57-1.99,67.21,4.25,87.96,27.29-68.17,11.65-54.09-6.02-103.06-8.51-44.11-2.24-70.18,18.89-96.78-18.08-21.86-30.39-14.55-69.23-31.73-87.36-8.26-8.72-61.47-27.79-78.63-41.46,17.56,46.07,84.59,26.99,72.98,93.8-17.62-5.12-24.62-4.59-43.64-.28,28.87,12.49,36.96-.66,57.55,29.18,24.64,35.72,9.48,25.21,49.37,45.49-18.96,19.66-42.91,16.4-65.3,24.27,68.31,20.31,68.82-23.31,112.4-26.64l16.77,3.62c-38.45,10.83-23.68,22.98-38.27,51.02-8.82,16.95-32.64,23.53-29.44,45.18,1.34,9.11.2,4.48,3.72,9.69,9.64-30.36,13.05-19.01,36.62-35.05,21.93-14.92,12.91-25.51,21.27-51.57,17.96-8.68,28.21-9.65,54.01-8.12-14.23,18.07-20.62,15.76-22.54,43.15-1.91,27.39-15.15,25.96-32.09,38.31,82.67-1.04,11.91-65.88,87.16-74.34,69.69-7.84,77.16,6.7,148.18-20.62-8.37,19.51-39.82,41.94-61.64,45.16-12.49,1.83-25.11-5.25-40.56-6.43-17.8-1.36-37.51-.04-56.27-.95,15.5,14.1,43.44,5.07,61.81,14.4-12.97,7.22-33.85,6.8-47.25,13.98-38.31,20.52,5.51,79.79-101.72,86.61,34.58,17.46,69.43,1.86,90.19-26.33,3.44-4.68,4.08-5.56,6.24-7.75,31.88,47.49,2.16,51.78-35.45,68.32l5.3,1.81c3.34.25,4.01.49,4,.63.55-.13,1.86-.35,4.68-.72,18.17-2.35,39.95-9.41,51.25-18.5l13.03,10.41c.82.69,2.13,1.82,2.81,2.4.69.59,1.86,1.69,2.83,2.48l-27.56-69.45c-11.6-32.43,17.21-40.94,45.72-44-9.7,38.02-12.38,10.39-10.1,59.81l8.5-31.75c11.85,6.15,34.87,16.98,39.64,31.02,3.54-36.12-65.8-42.85,27.95-76.43-9.83,48.56,40.64,80.8-20.32,100.97-75.77,25.07-16.25,37.93-68.6,82.88-.7.6-1.99,1.6-2.86,2.52,45.92-4.43,33.87-19.79,48.6-48.33,6.32-12.25,29.58-16.72,59.67-34.13-6.57,38.8-34.62,28.04-36.38,63.61-1.6,32.43,18.25,48.56,39.57,58.54-8.82-17-19.46-23.66-19.83-45.69-.36-21,13.25-34.02,19.31-47.75l3.94,6.2c7.78,13.84,16.37,20.63,21.56,34.56l5.1,20.55c18.33-54.44-22.19-20.9-8.16-86.29,11.47-53.47-16.51-57.31-14.91-93.13,1.5-33.66,33.61-42.86,58.33-58.95,31.58-20.56,29.35-39.77,46.05-70.76-.85,116-133.02,106.95-38.21,179.2-.06,44.64-38.97,52.67-23.02,88.49,8.04-11.1,3.75-23.53,20.35-42.99,12.12-14.2,16.79-18.81,28.27-39.25,39.06,8.71,39.2,20.98,29.95,52.99,18.58-5.86,29.1-17.38,26.36-40.67-18.04-27.11-72.5-31.23-84.66-63.83-.04-6.5,40.69-41.45,48.29-51.45,11.14,6.92,1.73.69,10.34,8.36,36.4,32.43-9.63,61.71,36.97,83.73-12.2-26.72-17.98-16.56-6.94-53.43,81.79,36.62,14.83,49.86,44.64,95.53-.02-25.71,6.49-37.98,20.8-60.39.4-.62,1.19-1.87,1.91-2.72,24.42,12.64,39.53,35.03,15.05,63.4-13.79,15.98-43.73,24.56-67.47,34.61-30.01,12.7-38.92,27.65-60.16,37.85-39.3,18.88-45.62-3.98-64.31,42.6,1.26-.59,2.92-3.17,3.51-2.26l21.74-19.9c8.6-4.31,24.75-3.09,34.7-3.84.86,28.12.15,34.54,20.59,44.84-7.35-46.37,8.51-45.41,28.25-67.21l23.35,39.57c.57.7,1.32,1.7,1.89,2.4l8.1,9.66c.34-31.26-23.07-30.79-6.28-59.33,9.07-15.42,29.61-20.8,49.14-26.78-7.21,42.7-11.92,65.24,29.84,79.25-11.17-13.13-22.48-26.11-21.09-49.56.63-10.61,4.82-22.48,8.68-30.25l18.67-21.62c15.14,18.43,8.77,13.68,14.78,38.3,7.19-11.91,5.29-7.64,5.62-24.96,10.06,3.7,8.61,4.76,10.88,4.25-6.86-13.91-15.21-14.8-25.25-29.79,1.7-64.77,12.46-59.53-49.27-86.12-35.29-15.19-59.39-35.63-70.57-76.83.91.8,2.18.9,2.61,2.54.43,1.6,1.99,1.92,2.57,2.48,4.62,4.44,3.25,3.41,7.16,6.89,6.53,5.82,4.13,4.08,11.98,9.09,31.51,20.11,76.96,15.96,108.92,30.29,4.36,42.1-9.75,61.12,37.15,70.52l-18.5-20.29c-5.3-13.85-1.75-20.17,1.05-33.96,27.7-3.9,48.56-.81,54.6,20.94,1.34-23.68-4.78-27.5-26.57-32.89-43.54-10.76-9.68-14.3-36.78-26.98-36.3-16.97-75.22,1.79-95.94-36.81,30.77,6.68,45.11,14.77,85.17,16.22,27.57,1,67.5-10.23,89.52,5.95,8.19,14.47,9.78,75.41,5.81,90.19-6.02,11.11-27.39,17.16-37.07,27.71-21.19,23.1,6.49,16.53-30.01,63.64-15.27,19.7-32.57,41.79-23.37,68.64,13.34-21.58,27.1-68.47,54.7-79.43,15.43,28.29,12.96,32.07,3.2,60.13,10.99-5.81,1.45,2.74,11.21-7.88,11.1-12.08,9.9-27.81,5.49-42.24-6.44-21.09-21.44-34.53-4.79-50.38.75,0,1.91-.12,2.12.78l20.07,18.76c6.46,3.43,26.74,8.73,33.11,10.71-13.55-23.01-30.95-9.19-35.95-37.22,3.05-23.69,59.84-26.5,72.34-13.27,10.1,18.61-2.73,21.18,8.7,42.09l9.9-51.71c-33.43-20.61-58.67-3.59-67.88-44.59,15.42.57,14.91,5.27,35.08,2.61,11.82-1.55,22.29-6.18,35.06-8.29,17.06,19.6,16.94,8.58,36.86,15.48,16.23,5.63,8.23,22.64,6.42,36.34,21.9-21.55,2.59-30.38,20.45-58.66-54.42,28.22-32.25-20.86-65.36-15.39-36.37,6.01-56.68,21.32-64.89-30.42,37.29,5.39,87.16-11.71,105.27,1.96,32.31,24.37,50.78,24.36,82.77-2.23-22.31,2.9-29.66,7.64-53.17-1.9l-43.75-25.19c52.96-6.83,103.64,7.54,124.15-37.19-26.82,13.6-31.07,16.91-68.84,19.2,45.68-40.99,36.48-39.9,60.86-92.53,2.85-6.15,5.83-10.27,10.05-14.67l18.99-18.08c-80.44,10.24-32.52,96.67-141.66,128.86Zm-738.91-634.45c18.4,2.89,32.53-7.23,33.09-23.68-17.93-1.97-31.6,7.82-33.09,23.68Zm-15.23-26.2c13.33,7.96,27.42,4.54,32.98-8.01-13.26-7.11-26.89-3.8-32.98,8.01Zm-72.85-80.99c10.22-19.87,2.95-40.95-17.02-49.34-8.93,19.77-1.89,40.16,17.02,49.34Zm2.47,69.52c12.53-35.49-2.35-67.33-34.84-74.52-10.53,34.91,3.86,65.7,34.84,74.52Zm-49.55,60.93c-6.98-25.65-30.57-34.13-55.21-19.85,8.06,24.23,30.87,32.44,55.21,19.85Zm407.81-342.21c2.19-11.29,2.04-23.77.76-37.23-6.28,3.58-24.04,19.43-36.41,37.23h35.65Zm-49.91,0c15.09-19.89,16.1-47.71,1.38-68.84-18.08,18.41-22.73,45.77-12.54,68.84h11.16Zm-28.82-13.18c-1.31-19.32-16.7-34.69-36.02-35.99,2.27,18.87,17.15,33.74,36.02,35.99Zm-61.67,13.18c-.07-.09-.12-.19-.19-.28-.11.1-.22.19-.33.28h.52Zm229.87-82.42c-16.29,9.79-23.77,29.45-18.1,47.59,17.09-9.1,24.82-29.43,18.1-47.59Zm-18.35,82.42h9.48c16.48-8.34,26.57-26.21,24.45-45.24-20.05,6.15-33.65,24.53-33.93,45.24Zm70.39,0c-1.69-7.79-5.47-15.13-9.74-22.59-11.06,6.19-15.33,13.99-16.64,22.59h26.38Zm-335.14-7.32c-14.21,16.51-14.02,40.98.43,57.27,13.09-16.9,12.91-40.57-.43-57.27Zm227.94,5.62c1.02.64,1.99,1.19,2.93,1.7h27.55c.12-3.52.35-8.05.72-14.06,2.37-39.36-17.18-50.81-47.91-59.39,2.14,33.92-8.33,56.15,16.72,71.75Zm-350.31,136.14c-.5-15.86-12.27-26.44-27.56-24.77,1.27,15.35,12.66,25.58,27.56,24.77Zm64.94-90.19c-17.57,14.52-22.93,39.18-12.96,59.68,18.64-13.85,24.18-39.35,12.96-59.68Zm-50,15.33c-17.81,27.77-14.3,64.13,8.49,87.98,19.58-27.32,15.95-64.91-8.49-87.98Zm44.6,208.34c34.7,17.11,39.05,24.17,36.9,72.97-64.42,1.51-55.35,10.44-70.46-18.37-10.57-20.15-20.76-12.05-41.63-16.65-11.89-2.62-14.59-6.74-22.58-14.44,6.93,26.9,16.33,17.43,38.77,26.91,16.42,6.93,13.63,20.59,24.81,37.69,61.26,11.68,64.52-21.54,69.12,33.89-38.72.68-64.04,25.77-100.99,16.16-16.55-4.3-10.75-7.7-24.07-18.21-7.51-5.92-13.95-6.73-24.11-14.34-7.57-5.68-12.48-13.36-26.29-16.96-15.07-3.93-23.7-1.75-37.94,3.42l-26.97,17.5c27.41,29.19,60.18,17.52,91.51,5.23,22.59,13.31,16.4,14.79,31.26,27.28,14.49,12.17,29.36,9.47,44.66,14.3-21.1,21.6-38.83,1.79-50.32,31.18,18.59-10.46,16.78-8,38.44-13.83,28.43-7.66,17.16-10.8,31.95-23.65,23.9-20.76,59.7-5.56,80.56,4.43,23.99,11.49,63.92,6.88,91.89,13.94,30.39,7.67,55.63,20.73,73.74,37.25,22.06,20.12,32.71,47.43,33.28,76.59h-421.98v20.39h970.47v-20.39h-395.16c6.02-36.19,29.13-67.43,63.61-90.75,28.78-19.47,52.78-34.48,87.44-12.98,50.13,31.1,52.11,11.84,98.95,5.49,27.22,20.88,18.53,25.23,61.7,25.87-15.2-74.86-96.84,10.82-151.98-53.54,22.04-10.91,64.89-13.06,90.73-9.17,40.69,6.13,61.74-1.82,77.85-27.5,25.42-40.56,10.69-29.59,59.05-47.4,28.98-10.68,36.94-30.54,41.39-65.7-59.13,5.53-44.13,51.28-59.58,65.3-30.28,10.92-26.47,8.22-43.31,32.84-14.2,20.77-20.66,26.16-55.11,25.92,10.68-20.62,22.8-22.07,24.74-51.58,4.73-71.91,39.01-42.67,37.42-122.98-.57-28.85-11.9-42.46-36.08-48.11-15.71,35.99,7.06,47.95,30.26,65.4-2.25,22.64-2.49,21.34-18.57,32.6l-28.71,23.39c-17.95-8.44-24.76-13.87-33.15-30.45,7.17-17.88,16.12-21.8,10.55-50.04-23.64,8.12-22.43,33.72-12.99,60.24,9.38,26.36,34.06,23.51,30.62,56.95-5.95,57.98-65.18,52.48-118.62,60.18l11.29-35.23c-2.11.4-3.43.47-3.9,2.17-.45,1.67-2.08,1.92-2.69,2.53-38.51,38.36-23.12,28.06-78.1,44.6-6.57,6.62-14.08,13.18-22.45,19.62-15.18,11.68-33.77,21.36-55.24,28.77-4.28,1.47-8.7,2.79-13.26,3.98-.25.2-.49.4-.74.6,0-.14,0-.27-.01-.41-18.27,4.67-38.73,7.03-61.06,7.03h-.23c-39.8-.39-75.6-9.36-106.41-26.66-13.93-7.82-26.55-17.11-37.82-27.77-4.3-1.48-9.03-2.83-14.35-4.01-75.64-16.74-127.79,15.08-125.77-61.5.64-24.32-6.62-70.15,1.06-84.87,10.74-20.61,31.8-19.58,39.27-50,9.47-38.6-8.83-46.26-15.02-74.37-10.34-46.91,15.36-42.62,29.76-63.84,4.31-6.35,7.43-14.41,9.16-23.09h-23.95v-37.28c-34.59,38.61-19.41,68.96-19.05,82.63.38,14.78-6.64,20.19-7.25,38.21-.92,27.12,17.3,54.3,3.11,80.2-6.63,12.11-14.75,14.65-23.52,23.4-10.59,10.57-8.56,16.34-18.85,26.01-41.64-14.31-49.93-9.73-53.29-57.3-2.3-32.59-7.37-22.7-11.17-24.86,2.1,35.17-5.59,67.9,29.45,85.19Zm-24.73-94.47c24.5-7.55,39.65-32.05,35.46-57.34-23.63,8.64-38.28,32.33-35.46,57.34Zm26.47,68.46c16.36-7.69,24.52-26.29,19.09-43.54-15.65,8.37-23.54,26.36-19.09,43.54Zm31.18-67.85c4.99,17.03,20.99,28.43,38.71,27.59-4.18-17.59-20.72-29.38-38.71-27.59Zm35.37-14.61c-5.37-22.59-26.62-37.74-49.73-35.45,6.41,21.88,26.96,36.52,49.73,35.45Zm-81.24,47.19c20.19-6.22,32.66-26.4,29.21-47.24-19.47,7.12-31.54,26.64-29.21,47.24Zm74.97-94c7.23-23.81-2.76-49.48-24.19-62.12-8.62,23.84,1.72,50.38,24.19,62.12Z"/>
    <g>
      <g>
        <path class="cls-1" d="m1082.23,303.1v5.07h4.55c6.41,0,12.15,2.7,17.21,8.09,4.47,4.77,5.51,11.37,3.16,19.8l-3.26,7.85c.78,1.35,1.51,2.74,2.21,4.14,2.72,5.52,4.8,11.39,6.22,17.59.45,1.99.84,4.02,1.16,6.08.68,4.39,1.06,8.93,1.11,13.6l4.83-10.84,2.07-4.65,13.27-29.78h.1c5.39-11.46,12.31-19.65,20.75-24.55,8.43-4.89,16.36-7.34,23.79-7.34h4.56v-5.07h-101.74Zm-16.5,189.7c-1.69-1.11-3.45-2.16-5.27-3.13-4.54-2.4-9.31-4.52-14.18-6.29-.08-.03-.16-.06-.24-.08l-50.44,121.53-25.19-63.03-5.11-12.79-33.29-83.31-11.1-27.78-2.13-5.31-.87-2.18-9.26-23.17-.15-.36-.33-.82-1.47-3.67-17.13-42.87h.31c-3.72-10.13-3.12-17.88,1.77-23.29,1.25-1.37,2.55-2.58,3.9-3.61,3.93-3,8.29-4.49,13.06-4.49h4.56v-5.07h-113.89v5.07h4.05c7.76,0,15.86,2.45,24.3,7.34,8.43,4.9,15.18,13.08,20.24,24.55h.17l29.9,68.28,2.25,5.13,14.93,34.11,2.69,6.15,39.7,90.65,5.04,11.51,33.37,76.2h0s.25.59.25.59h28.46c2.42-5.76,5.33-12.53,8.76-20.31l53.08-119.08c-.24-.17-.49-.33-.73-.49Z"/>
        <path class="cls-4" d="m1130.24,574.57l-.17,29.96c-1.15,2.24-2.41,4.43-3.77,6.58-9.11,14.35-22.52,25.48-40.24,33.41-17.72,7.93-39.06,11.89-64.03,11.89h-104.13c-1.61-1.96-3.17-3.97-4.68-6.03,5.43-1.36,10.32-4.16,14.67-8.39,6.41-6.24,9.62-13.75,9.62-22.53v-61.36l32.9,75.14v4.94h49.61c17.54,0,32.39-3.12,44.54-9.36,12.15-6.24,21.42-15.44,27.84-27.59,6.4-12.15,9.62-26.65,9.62-43.53,0-.31,0-.62,0-.92h7.36c18.51,0,20.88,9.52,20.88,17.79Z"/>
        <path class="cls-4" d="m947.7,394.55c7.15-4.69,14.78-8.62,22.7-11.7v144.13l-32.9-82.32v-42.69c1.01-.81,2.03-1.61,3.08-2.4,2.26-1.71,4.65-3.4,7.12-5.02Z"/>
        <path class="cls-4" d="m1138.26,541.51h-37.04c-.07,0-.14,0-.21,0-1.53-11.68-4.83-21.64-9.88-29.87-4.97-8.06-10.9-14.79-17.83-20.19-.52-.41-1.05-.8-1.57-1.18-.69-.51-1.39-1.01-2.1-1.48-.3-.21-.59-.41-.9-.6-.46-.31-.92-.6-1.4-.89-.87-.55-1.76-1.07-2.66-1.58-.54-.31-1.09-.61-1.64-.9-.8-.42-1.61-.84-2.43-1.24-1.01-.5-2.02-1-3.05-1.47,0,0,0,0-.02,0-.95-.45-1.91-.87-2.87-1.29-1.06-.46-2.13-.9-3.21-1.33-.46-.19-.93-.37-1.4-.55-.64-.25-1.28-.49-1.91-.72-.43-.15-.87-.31-1.29-.46-1.3-.46-2.61-.89-3.93-1.31h0c-5.52-1.71-11.21-3.06-17.09-4.03-13.33-2.19-26.07-3.29-38.22-3.29v-4.56c7.76,0,16.36-.84,25.81-2.52,9.44-1.68,18.55-5.07,27.33-10.13,8.63-4.98,15.79-12.34,21.5-22.06.09-.15.18-.31.27-.46,2.3-3.99,4.13-8.48,5.52-13.48,2.06-7.46,3.08-16.04,3.08-25.75,0-2.96-.11-5.84-.32-8.63-.14-1.89-.34-3.73-.57-5.54-.11-.78-.22-1.56-.34-2.33,0,0,0-.02,0-.03-.02-.11-.03-.22-.06-.34-.06-.34-.11-.68-.17-1.03-.05-.27-.1-.54-.15-.81-.06-.31-.11-.61-.17-.9-.03-.13-.05-.26-.08-.39-.06-.28-.11-.57-.18-.85-.07-.36-.15-.71-.23-1.06-.15-.68-.31-1.36-.48-2.04-.32-1.26-.66-2.5-1.04-3.71-.08-.25-.15-.5-.24-.75-.14-.45-.29-.9-.44-1.35-.08-.22-.15-.45-.23-.67-.07-.19-.14-.38-.2-.57-.23-.64-.47-1.27-.72-1.9-.02-.04-.03-.08-.05-.12-.16-.41-.33-.82-.5-1.22-.22-.52-.44-1.03-.67-1.54-.04-.09-.08-.19-.13-.28-.36-.82-.76-1.63-1.16-2.43-.08-.16-.15-.31-.23-.47-5.57-10.8-13.84-18.98-24.81-24.55-10.97-5.57-24.55-8.35-40.74-8.35h-26.83v35.69c-.4.09-.79.19-1.18.28-11.01,2.62-21.67,6.19-31.72,10.63v-25.85c0-8.76-3.21-16.27-9.62-22.52-1.63-1.6-3.35-2.97-5.14-4.16v-10.27h76.51c23.62,0,43.61,3.55,59.98,10.63,16.36,7.09,28.76,16.96,37.2,29.61.45.67.88,1.34,1.3,2.03,1.24,1.99,2.38,4.04,3.41,6.13,1.98,4.01,3.59,8.2,4.83,12.58.56,1.98,1.05,4,1.46,6.05,1.11,5.55,1.66,11.38,1.66,17.49,0,3.1-.13,6.12-.39,9.05-.11,1.27-.25,2.53-.41,3.77-.09.73-.2,1.46-.31,2.17-1.25,8.11-3.58,15.51-6.98,22.21-3.12,6.14-6.75,11.6-10.88,16.39-3.02,3.5-6.31,6.64-9.87,9.42-8.16,6.36-16.8,10.92-25.9,13.65-.31.1-.62.18-.92.27.26.04.51.08.76.12,8.14,1.27,15.76,3.21,22.88,5.83,1.73.63,3.44,1.32,5.12,2.04,6.27,2.68,12.13,5.92,17.55,9.72,12.99,9.11,22.95,20.5,29.87,34.17,4.11,8.12,7,16.81,8.67,26.07Z"/>
      </g>
      <path class="cls-5" d="m1064.87,374.43c-13.64-3.68-28.51-5.52-44.6-5.52s-30.92,2.24-44.77,6.73c-1.71.56-3.41,1.14-5.09,1.76-8.96,3.32-17.46,7.62-25.49,12.89-2.53,1.66-5.01,3.4-7.41,5.22-1.73,1.31-3.43,2.65-5.09,4.04-3.4,2.83-6.66,5.83-9.79,9l-9.26-23.17-.44-1.1c3.9-2.64,7.95-5.13,12.13-7.48,2.42-1.36,4.87-2.66,7.36-3.89,1.68-.84,3.38-1.65,5.09-2.44,10.41-4.77,21.38-8.52,32.9-11.26,1.68-.4,3.38-.78,5.09-1.14,14.11-2.96,29.03-4.44,44.77-4.44,14.18,0,27.29.89,39.31,2.64.42.92.82,1.87,1.19,2.83,1.85,4.69,3.22,9.84,4.09,15.33Zm36.35,172.17v5.09h8.15c17.31,0,25.97,7.64,25.97,22.91l-.1,17.64-.41,72.47c-9.51,9.17-20.37,17.06-32.59,23.68-12.23,6.62-25.2,11.71-38.95,15.27-13.75,3.57-28.08,5.35-43.02,5.35-28.52-.34-53.64-7.55-75.36-21.64-12.85-8.34-24.04-18.66-33.56-30.97-1.3-1.68-2.57-3.39-3.8-5.14-5.03-7.12-9.55-14.86-13.55-23.21-12.22-25.45-18.33-55.15-18.33-89.09s5.52-60.69,16.55-85.28l-15.67-35.81c-5.87,7.36-11.17,15.31-15.9,23.85-15.44,27.83-23.17,60.25-23.17,97.24s7.73,69.32,23.17,96.98c15.45,27.67,36.91,49.22,64.4,64.66,27.5,15.45,59.23,23.32,95.21,23.67,25.79,0,48.27-3.32,67.46-9.92,19.18-6.62,35.39-15.02,48.62-25.2,13.24-10.18,23.76-20.37,31.57-30.55v-84c-.68-15.27,7.81-22.91,25.46-22.91h7.64v-5.09h-99.79Z"/>
    </g>
  </g>
  <g>
    <g>
      <path class="cls-2" d="m384.92,1718.92h-21.7l-3.56,7.83h-8.48l18.61-41.5h8.54l18.61,41.5h-8.54l-3.5-7.83Zm-10.85-24.96l-7.71,17.67h15.41l-7.71-17.67Z"/>
      <path class="cls-2" d="m433.76,1685.31v23.77c0,12.27-7.53,18.56-17.96,18.56s-18.44-6.05-18.44-18.56v-23.77h7.77v23.77c0,7.47,4.27,11.44,10.73,11.44s10.14-4.33,10.14-11.44v-23.77h7.77Z"/>
      <path class="cls-2" d="m452.14,1692.36h-13.16v-7.11h34.15v7.11h-13.16v34.38h-7.83v-34.38Z"/>
      <path class="cls-2" d="m506.14,1726.81v-16.78h-20.39v16.78h-7.83v-41.5h7.83v17.49h20.39v-17.49h7.77v41.5h-7.77Z"/>
      <path class="cls-2" d="m562.04,1706.24c-.12,10.73-6.7,21.46-21.28,21.46s-21.34-10.49-21.34-21.4,7-21.87,21.34-21.87,21.4,10.97,21.28,21.82Zm-34.92.18c.18,6.82,3.85,14.11,13.63,14.11s13.46-7.35,13.58-14.17c.12-7-3.79-14.82-13.58-14.82s-13.81,7.88-13.63,14.88Z"/>
      <path class="cls-2" d="m604.6,1726.75h-9.31l-12.09-13.87h-7.53v13.87h-7.83v-41.56c6.58,0,13.16.06,19.74.06,9.78.06,14.94,6.58,14.94,13.75,0,5.69-2.61,11.44-10.49,13.04l12.57,14.17v.53Zm-28.93-34.21v13.28h11.92c4.98,0,7.11-3.32,7.11-6.64s-2.19-6.64-7.11-6.64h-11.92Z"/>
      <path class="cls-2" d="m607.86,1726.75v-41.5h7.77v41.5h-7.77Z"/>
      <path class="cls-2" d="m649.77,1695.27c-1.42-2.37-5.33-4.62-9.84-4.62-5.81,0-8.6,2.43-8.6,5.51,0,3.62,4.27,4.62,9.25,5.22,8.66,1.07,16.72,3.32,16.72,13.22,0,9.25-8.18,13.22-17.43,13.22-8.48,0-15-2.61-18.08-10.2l6.52-3.38c1.84,4.56,6.64,6.58,11.68,6.58s9.54-1.72,9.54-6.22c0-3.91-4.09-5.51-9.6-6.11-8.48-1.01-16.3-3.26-16.3-12.57,0-8.54,8.42-12.03,16.06-12.09,6.46,0,13.16,1.84,16.3,8.24l-6.22,3.2Z"/>
      <path class="cls-2" d="m694.28,1726.75h-31.06v-41.5h31.06v7.59h-23.3v9.54h22.47v7.29h-22.47v9.37h23.3v7.71Z"/>
      <path class="cls-2" d="m736.84,1705.64c.18,10.49-6.22,21.1-20.75,21.1h-16.3v-41.5h16.3c14.23,0,20.57,10.14,20.75,20.39Zm-29.28,13.58h8.54c9.43,0,13.16-6.88,12.98-13.63-.18-6.46-3.97-12.92-12.98-12.92h-8.54v26.56Z"/>
      <path class="cls-2" d="m753.97,1726.75v-41.44h29.82v7.53h-21.99v11.32h20.81v7.23h-20.81v15.35h-7.83Z"/>
      <path class="cls-2" d="m789.83,1726.75v-41.5h7.77v41.5h-7.77Z"/>
      <path class="cls-2" d="m832.22,1685.19h7.82v41.56h-4.86v.06l-21.81-28.04v27.98h-7.83v-41.5h6.34l20.33,25.73v-25.79Z"/>
      <path class="cls-2" d="m876.68,1718.92h-21.7l-3.56,7.83h-8.48l18.61-41.5h8.54l18.61,41.5h-8.54l-3.5-7.83Zm-10.85-24.96l-7.71,17.67h15.41l-7.71-17.67Z"/>
      <path class="cls-2" d="m919.53,1685.19h7.82v41.56h-4.86v.06l-21.82-28.04v27.98h-7.83v-41.5h6.34l20.33,25.73v-25.79Z"/>
      <path class="cls-2" d="m971.11,1721.53c-4.27,4.21-9.78,6.17-15.77,6.17-15.41,0-21.93-10.61-21.99-21.4-.06-10.85,7-21.87,21.99-21.87,5.63,0,10.97,2.13,15.24,6.34l-5.22,5.04c-2.73-2.67-6.4-3.91-10.02-3.91-10.02,0-14.35,7.47-14.29,14.4.06,6.88,4.03,14.05,14.29,14.05,3.62,0,7.71-1.48,10.43-4.21l5.33,5.39Z"/>
      <path class="cls-2" d="m975.61,1726.75v-41.5h7.77v41.5h-7.77Z"/>
      <path class="cls-2" d="m1020.19,1718.92h-21.7l-3.56,7.83h-8.48l18.61-41.5h8.54l18.61,41.5h-8.54l-3.5-7.83Zm-10.85-24.96l-7.71,17.67h15.41l-7.71-17.67Z"/>
      <path class="cls-2" d="m1044.19,1685.25v34.26h21.34v7.23h-29.17v-41.5h7.83Z"/>
      <path class="cls-2" d="m1108.63,1695.27c-1.42-2.37-5.33-4.62-9.84-4.62-5.81,0-8.59,2.43-8.59,5.51,0,3.62,4.27,4.62,9.25,5.22,8.66,1.07,16.72,3.32,16.72,13.22,0,9.25-8.18,13.22-17.43,13.22-8.48,0-15-2.61-18.08-10.2l6.52-3.38c1.84,4.56,6.64,6.58,11.68,6.58s9.54-1.72,9.54-6.22c0-3.91-4.09-5.51-9.6-6.11-8.48-1.01-16.3-3.26-16.3-12.57,0-8.54,8.42-12.03,16.07-12.09,6.46,0,13.16,1.84,16.3,8.24l-6.22,3.2Z"/>
      <path class="cls-2" d="m1153.14,1726.75h-31.06v-41.5h31.06v7.59h-23.3v9.54h22.47v7.29h-22.47v9.37h23.3v7.71Z"/>
      <path class="cls-2" d="m1196,1726.75h-9.31l-12.09-13.87h-7.53v13.87h-7.83v-41.56c6.58,0,13.16.06,19.74.06,9.78.06,14.94,6.58,14.94,13.75,0,5.69-2.61,11.44-10.49,13.04l12.57,14.17v.53Zm-28.93-34.21v13.28h11.92c4.98,0,7.11-3.32,7.11-6.64s-2.19-6.64-7.11-6.64h-11.92Z"/>
      <path class="cls-2" d="m1221.73,1726.93h-8.12l-17.25-41.67h8.77l12.51,32.31,12.57-32.31h8.77l-17.25,41.67Z"/>
      <path class="cls-2" d="m1243.83,1726.75v-41.5h7.77v41.5h-7.77Z"/>
      <path class="cls-2" d="m1295.53,1721.53c-4.27,4.21-9.78,6.17-15.77,6.17-15.41,0-21.93-10.61-21.99-21.4-.06-10.85,7-21.87,21.99-21.87,5.63,0,10.97,2.13,15.24,6.34l-5.22,5.04c-2.73-2.67-6.4-3.91-10.02-3.91-10.02,0-14.35,7.47-14.29,14.4.06,6.88,4.03,14.05,14.29,14.05,3.62,0,7.71-1.48,10.43-4.21l5.33,5.39Z"/>
      <path class="cls-2" d="m1330.85,1726.75h-31.06v-41.5h31.06v7.59h-23.3v9.54h22.47v7.29h-22.47v9.37h23.3v7.71Z"/>
      <path class="cls-2" d="m1368.43,1714.54h-11.74v12.21h-7.83v-41.5c6.52,0,13.04-.06,19.56-.06,20.27,0,20.33,29.34,0,29.34Zm-11.74-7.17h11.74c10.02,0,9.96-14.7,0-14.7h-11.74v14.7Z"/>
      <path class="cls-2" d="m1425.75,1726.75h-9.31l-12.09-13.87h-7.53v13.87h-7.83v-41.56c6.58,0,13.16.06,19.74.06,9.78.06,14.94,6.58,14.94,13.75,0,5.69-2.61,11.44-10.49,13.04l12.57,14.17v.53Zm-28.93-34.21v13.28h11.92c4.98,0,7.11-3.32,7.11-6.64s-2.19-6.64-7.11-6.64h-11.92Z"/>
      <path class="cls-2" d="m1469.74,1706.24c-.12,10.73-6.7,21.46-21.28,21.46s-21.34-10.49-21.34-21.4,7-21.87,21.34-21.87,21.4,10.97,21.28,21.82Zm-34.92.18c.18,6.82,3.85,14.11,13.63,14.11s13.46-7.35,13.58-14.17c.12-7-3.79-14.82-13.58-14.82s-13.81,7.88-13.63,14.88Z"/>
      <path class="cls-2" d="m1496.12,1726.93h-8.12l-17.25-41.67h8.77l12.51,32.31,12.57-32.31h8.77l-17.25,41.67Z"/>
      <path class="cls-2" d="m1518.22,1726.75v-41.5h7.77v41.5h-7.77Z"/>
      <path class="cls-2" d="m1569.86,1705.64c.18,10.49-6.22,21.1-20.75,21.1h-16.3v-41.5h16.3c14.23,0,20.57,10.14,20.75,20.39Zm-29.29,13.58h8.54c9.43,0,13.16-6.88,12.98-13.63-.18-6.46-3.97-12.92-12.98-12.92h-8.54v26.56Z"/>
      <path class="cls-2" d="m1605.95,1726.75h-31.06v-41.5h31.06v7.59h-23.3v9.54h22.47v7.29h-22.47v9.37h23.3v7.71Z"/>
      <path class="cls-2" d="m1648.81,1726.75h-9.31l-12.09-13.87h-7.53v13.87h-7.83v-41.56c6.58,0,13.16.06,19.74.06,9.78.06,14.94,6.58,14.94,13.75,0,5.69-2.61,11.44-10.49,13.04l12.57,14.17v.53Zm-28.93-34.21v13.28h11.92c4.98,0,7.11-3.32,7.11-6.64s-2.19-6.64-7.11-6.64h-11.92Z"/>
    </g>
    <g>
      <path class="cls-2" d="m766.51,1608.65c-6.7,5.33-10.08,13.16-10.08,21.58,0,9.01,3.38,16.12,10.08,21.4l-3.91,5.28c-9.25-6.11-13.63-16.66-13.63-26.68s4.68-20.21,13.93-26.44l3.62,4.86Z"/>
      <path class="cls-2" d="m768.29,1643.09h6.22v-27.74h-6.46v-7.11h14.23v34.86h5.75v6.64h-19.74v-6.64Z"/>
      <path class="cls-2" d="m819.33,1636.86v-6.22c-1.84,2.84-6.34,4.39-9.6,4.39-8.36,0-17.13-3.5-17.13-13.81,0-9.19,8.83-13.75,17.19-13.75s17.31,4.56,17.31,13.87v15.47c0,9.25-8.54,13.58-17.07,13.58-9.01,0-17.25-3.56-17.25-12.27h7.83c0,3.68,4.86,5.51,9.31,5.51,4.68.06,9.43-2.49,9.43-7v.24Zm-18.97-15.65c0,4.56,4.15,7,9.37,7s9.66-2.37,9.6-7c-.06-4.56-4.45-6.76-9.54-6.76s-9.43,2.19-9.43,6.76Z"/>
      <path class="cls-2" d="m859.34,1636.86v-6.22c-1.84,2.84-6.34,4.39-9.6,4.39-8.36,0-17.13-3.5-17.13-13.81,0-9.19,8.83-13.75,17.19-13.75s17.31,4.56,17.31,13.87v15.47c0,9.25-8.54,13.58-17.07,13.58-9.01,0-17.25-3.56-17.25-12.27h7.83c0,3.68,4.86,5.51,9.31,5.51,4.68.06,9.43-2.49,9.43-7v.24Zm-18.97-15.65c0,4.56,4.15,7,9.37,7s9.66-2.37,9.6-7c-.06-4.56-4.45-6.76-9.54-6.76s-9.43,2.19-9.43,6.76Z"/>
      <path class="cls-2" d="m899.35,1636.86v-6.22c-1.84,2.84-6.34,4.39-9.6,4.39-8.36,0-17.13-3.5-17.13-13.81,0-9.19,8.83-13.75,17.19-13.75s17.31,4.56,17.31,13.87v15.47c0,9.25-8.54,13.58-17.07,13.58-9.01,0-17.25-3.56-17.25-12.27h7.83c0,3.68,4.86,5.51,9.31,5.51,4.68.06,9.43-2.49,9.43-7v.24Zm-18.97-15.65c0,4.56,4.15,7,9.37,7s9.66-2.37,9.6-7c-.06-4.56-4.45-6.76-9.54-6.76s-9.43,2.19-9.43,6.76Z"/>
      <path class="cls-2" d="m937.52,1604.32l-19.8,50.27h-7.53l19.74-50.27h7.59Z"/>
      <path class="cls-2" d="m947.36,1620.98v6.22c1.84-2.85,6.34-4.39,9.6-4.39,8.36,0,17.13,3.5,17.13,13.81,0,9.19-8.83,13.75-17.19,13.75s-17.31-4.56-17.31-13.87v-15.47c0-9.25,8.54-13.58,17.07-13.58,9.01,0,17.01,3.56,17.01,12.27h-7.82c0-3.67-4.62-5.51-9.07-5.51-4.68-.06-9.43,2.49-9.43,7v-.24Zm18.97,15.65c0-4.57-4.15-7-9.37-7s-9.66,2.37-9.6,7c.06,4.56,4.45,6.76,9.54,6.76s9.43-2.19,9.43-6.76Z"/>
      <path class="cls-2" d="m978.89,1625.96c0-24.78,36.4-24.72,36.4,0v5.99c0,24.72-36.4,24.78-36.4,0v-5.99Zm7.77,5.99c0,15.06,20.87,15.06,20.87,0v-5.99c0-14.82-20.87-15-20.87,0v5.99Z"/>
      <path class="cls-2" d="m1019.74,1649.73l16.96-34.03h-20.21v-7.47h30.47l.42,4.15-18.61,37.35h-9.01Z"/>
      <path class="cls-2" d="m1054.71,1628.33c-3.56-1.9-5.22-4.98-5.22-8.18,0-8.36,7.71-12.63,16.72-12.63s17.01,4.33,17.01,12.63c0,2.85-1.6,6.28-5.34,7.83,4.27,1.72,6.22,6.05,6.28,9.25.18,9.66-8.71,13.52-17.96,13.46-9.01-.06-18.02-3.73-17.84-13.46.06-3.2,2.08-7.17,6.34-8.89Zm1.84,9.01c-.06,3.2,3.38,6.22,9.72,6.22s9.78-2.96,9.72-6.22c-.06-4.09-4.51-5.93-9.72-5.93-4.86,0-9.66,1.84-9.72,5.93Zm9.72-11.62c4.8,0,8.66-2.19,8.77-5.81.12-3.5-3.56-5.87-8.83-5.87-5.87,0-8.83,3.02-8.71,5.87.12,3.62,4.21,5.81,8.77,5.81Z"/>
      <path class="cls-2" d="m1115.88,1636.86v-6.22c-1.84,2.84-6.34,4.39-9.6,4.39-8.36,0-17.13-3.5-17.13-13.81,0-9.19,8.83-13.75,17.19-13.75s17.31,4.56,17.31,13.87v15.47c0,9.25-8.54,13.58-17.07,13.58-9.01,0-17.25-3.56-17.25-12.27h7.83c0,3.68,4.86,5.51,9.31,5.51,4.68.06,9.43-2.49,9.43-7v.24Zm-18.97-15.65c0,4.56,4.15,7,9.37,7s9.66-2.37,9.6-7c-.06-4.56-4.45-6.76-9.54-6.76s-9.43,2.19-9.43,6.76Z"/>
      <path class="cls-2" d="m1154.06,1604.32l-19.8,50.27h-7.53l19.74-50.27h7.59Z"/>
      <path class="cls-2" d="m1156.78,1620.27c.06-8.77,8.36-12.57,16.01-12.57,8.3,0,17.31,3.38,17.31,13.22,0,10.55-7.94,12.57-16.66,12.57-3.44,0-9.01.89-9.01,5.39v3.56h25.79v7.29h-33.61v-10.91c0-9.54,8.66-12.39,16.84-12.39,3.14,0,8.89-.53,8.89-5.34,0-4.5-4.09-6.64-9.43-6.64-4.09,0-8.3,2.07-8.36,5.81h-7.77Z"/>
      <path class="cls-2" d="m1204.86,1631.65v-6.4h5.99c4.21,0,8.65-1.13,8.71-4.98,0-2.37-1.9-5.51-8.54-5.51-3.68,0-8.66,1.3-8.66,5.1h-7.83c0-8.95,8.89-12.21,16.54-12.21s16.24,3.79,16.3,12.63c0,3.26-2.13,7.05-5.75,8.18,3.97,1.3,6.76,5.22,6.76,8.71,0,10.14-9.54,13.16-17.55,13.16s-16.9-3.32-16.95-12.75h7.88c0,4.27,5.75,5.75,9.13,5.75,3.97,0,9.25-1.66,9.25-6.11,0-2.49-1.36-5.57-8.83-5.57h-6.46Z"/>
      <path class="cls-2" d="m1236.33,1603.79c9.25,6.22,13.93,16.54,13.93,26.44s-4.39,20.57-13.63,26.68l-3.79-5.39c6.7-5.28,9.96-12.27,9.96-21.28,0-8.42-3.38-16.24-10.08-21.58l3.62-4.86Z"/>
    </g>
    <g>
      <path class="cls-2" d="m805.04,1802.08v-41.44h29.82v7.53h-21.99v11.32h20.81v7.23h-20.81v15.35h-7.83Z"/>
      <path class="cls-2" d="m865.86,1770.61c-1.42-2.37-5.33-4.62-9.84-4.62-5.81,0-8.6,2.43-8.6,5.51,0,3.62,4.27,4.62,9.25,5.22,8.66,1.07,16.72,3.32,16.72,13.22,0,9.25-8.18,13.22-17.43,13.22-8.48,0-15-2.61-18.08-10.2l6.52-3.38c1.84,4.56,6.64,6.58,11.68,6.58s9.54-1.72,9.54-6.22c0-3.91-4.09-5.51-9.6-6.11-8.48-1.01-16.3-3.26-16.3-12.57,0-8.54,8.42-12.03,16.06-12.09,6.46,0,13.16,1.84,16.3,8.24l-6.22,3.2Z"/>
      <path class="cls-2" d="m898.99,1789.87h-11.74v12.21h-7.83v-41.5c6.52,0,13.04-.06,19.56-.06,20.27,0,20.33,29.34,0,29.34Zm-11.74-7.17h11.74c10.02,0,9.96-14.7,0-14.7h-11.74v14.7Z"/>
      <path class="cls-2" d="m958.75,1760.53h7.82v41.56h-4.86v.06l-21.82-28.04v27.98h-7.83v-41.5h6.34l20.33,25.73v-25.79Z"/>
      <path class="cls-2" d="m1010.55,1802.08h-9.31l-12.09-13.87h-7.53v13.87h-7.83v-41.56c6.58,0,13.16.06,19.74.06,9.78.06,14.94,6.58,14.94,13.75,0,5.69-2.61,11.44-10.49,13.04l12.57,14.17v.53Zm-28.93-34.21v13.28h11.92c4.98,0,7.11-3.32,7.11-6.64s-2.19-6.64-7.11-6.64h-11.92Z"/>
      <path class="cls-2" d="m1021.58,1798.35c0,5.63-8.54,5.63-8.54,0s8.54-5.63,8.54,0Z"/>
      <path class="cls-2" d="m1065.62,1789.22v-6.22c-1.84,2.84-6.34,4.39-9.6,4.39-8.36,0-17.13-3.5-17.13-13.81,0-9.19,8.83-13.75,17.19-13.75s17.31,4.56,17.31,13.87v15.47c0,9.25-8.54,13.58-17.07,13.58-9.01,0-17.25-3.56-17.25-12.27h7.83c0,3.68,4.86,5.51,9.31,5.51,4.68.06,9.43-2.49,9.43-7v.24Zm-18.97-15.65c0,4.56,4.15,7,9.37,7s9.66-2.37,9.6-7c-.06-4.56-4.45-6.76-9.54-6.76s-9.43,2.19-9.43,6.76Z"/>
      <path class="cls-2" d="m1086.66,1773.33v6.22c1.84-2.85,6.34-4.39,9.6-4.39,8.36,0,17.13,3.5,17.13,13.81,0,9.19-8.83,13.75-17.19,13.75s-17.31-4.56-17.31-13.87v-15.47c0-9.25,8.54-13.58,17.07-13.58,9.01,0,17.01,3.56,17.01,12.27h-7.83c0-3.67-4.62-5.51-9.07-5.51-4.68-.06-9.43,2.49-9.43,7v-.24Zm18.97,15.65c0-4.57-4.15-7-9.37-7s-9.66,2.37-9.6,7c.06,4.56,4.45,6.76,9.54,6.76s9.43-2.19,9.43-6.76Z"/>
      <path class="cls-2" d="m1148.85,1760.65v25.96h4.86v7.59h-4.86v7.88h-7.71v-7.88h-22.17l-.71-7.94,18.67-25.61h11.92Zm-7.71,25.96v-19.21l-14.05,19.21h14.05Z"/>
      <path class="cls-2" d="m1165.44,1780.68c-3.56-1.9-5.22-4.98-5.22-8.18,0-8.36,7.71-12.63,16.72-12.63s17.01,4.33,17.01,12.63c0,2.85-1.6,6.28-5.33,7.83,4.27,1.72,6.22,6.05,6.28,9.25.18,9.66-8.71,13.52-17.96,13.46-9.01-.06-18.02-3.73-17.84-13.46.06-3.2,2.08-7.17,6.34-8.89Zm1.84,9.01c-.06,3.2,3.38,6.22,9.72,6.22s9.78-2.96,9.72-6.22c-.06-4.09-4.51-5.93-9.72-5.93-4.86,0-9.66,1.84-9.72,5.93Zm9.72-11.62c4.8,0,8.66-2.19,8.77-5.81.12-3.5-3.56-5.87-8.83-5.87-5.87,0-8.83,3.02-8.71,5.87.12,3.62,4.21,5.81,8.77,5.81Z"/>
    </g>
  </g>
</svg>